<?xml version="1.0" standalone="no"?>
<!DOCTYPE svg PUBLIC "-//W3C//DTD SVG 20010904//EN"
 "http://www.w3.org/TR/2001/REC-SVG-20010904/DTD/svg10.dtd">
<svg version="1.0" xmlns="http://www.w3.org/2000/svg"
 width="960.000000pt" height="960.000000pt" viewBox="0 0 960.000000 960.000000"
 preserveAspectRatio="xMidYMid meet">
<metadata>
Created by potrace 1.11, written by Peter Selinger 2001-2013
</metadata>
<g transform="translate(0.000000,960.000000) scale(0.100000,-0.100000)"
fill="#000000" stroke="none">
<path d="M4480 9565 c-619 -37 -1282 -220 -1855 -514 -2004 -1027 -3019 -3309
-2438 -5481 581 -2176 2600 -3650 4845 -3540 1890 93 3553 1297 4226 3060 873
2284 -108 4845 -2283 5961 -594 304 -1270 486 -1930 518 -252 13 -285 13 -565
-4z m2606 -1297 c-9 -5 -16 -16 -16 -24 0 -8 -4 -13 -8 -10 -16 9 -6 49 14 56
24 9 32 -9 10 -22z m39 3 c3 -5 2 -12 -3 -15 -5 -3 -9 1 -9 9 0 17 3 19 12 6z
m-136 -18 c0 -11 -3 -13 -6 -5 -7 19 -23 14 -17 -5 5 -15 4 -15 -4 -3 -13 17
-6 30 14 30 8 0 14 -8 13 -17z m236 -14 c-4 -5 -12 -9 -18 -8 -9 0 -8 2 1 6 6
2 9 10 6 15 -4 7 -2 8 5 4 6 -4 9 -12 6 -17z m-341 -1 c-3 -4 -9 -8 -15 -8 -5
0 -9 4 -9 8 0 5 7 9 15 9 8 0 12 -4 9 -9z m304 -9 c10 -14 10 -20 -2 -32 -22
-21 -27 -62 -11 -84 25 -32 16 -39 -10 -8 -26 32 -31 51 -14 57 5 2 13 23 16
46 3 23 6 41 7 40 1 -2 7 -10 14 -19z m-218 -15 c0 -2 -7 -4 -15 -4 -8 0 -15
4 -15 10 0 5 7 7 15 4 8 -4 15 -8 15 -10z m90 -4 c0 -5 -4 -10 -10 -10 -5 0
-10 5 -10 10 0 6 5 10 10 10 6 0 10 -4 10 -10z m154 -32 c-5 -8 -2 -9 10 -5
10 4 15 3 11 -3 -3 -6 -13 -10 -21 -10 -8 0 -12 -5 -9 -10 4 -6 11 -7 17 -4 7
4 8 2 4 -4 -9 -15 -33 -16 -41 -2 -10 16 5 50 21 50 9 0 12 -5 8 -12z m84 -43
c-3 -3 -9 2 -12 12 -6 14 -5 15 5 6 7 -7 10 -15 7 -18z m48 -12 c-7 -7 -21 -4
-21 5 0 4 -4 14 -9 22 -6 9 -1 7 12 -4 12 -11 20 -21 18 -23z m-306 -3 c0 -5
-4 -10 -10 -10 -5 0 -10 5 -10 10 0 6 5 10 10 10 6 0 10 -4 10 -10z m380 -60
c0 -10 7 -21 16 -24 8 -3 13 -10 10 -15 -3 -5 -2 -20 3 -33 8 -18 10 -19 10
-5 1 10 5 16 11 12 5 -3 7 -12 4 -19 -3 -8 -1 -17 5 -21 6 -3 11 -1 11 6 0 7
14 -6 32 -29 18 -23 37 -42 42 -42 5 0 -3 14 -20 31 -24 27 -26 30 -6 20 20
-11 26 -8 23 11 -1 8 26 4 36 -5 4 -4 8 -15 9 -23 1 -9 -1 -13 -4 -9 -4 4 -8
11 -8 16 -1 5 -2 12 -3 15 0 4 -7 1 -15 -5 -11 -10 -7 -19 25 -52 29 -30 37
-45 29 -54 -5 -6 -6 -16 -2 -20 4 -4 -7 2 -25 15 -34 24 -68 19 -36 -6 16 -13
15 -13 -10 -2 -15 6 -53 43 -84 82 -32 39 -61 73 -65 74 -4 2 -8 9 -8 16 0 6
-13 27 -30 46 -33 40 -35 46 -17 64 10 11 17 10 40 -6 15 -11 27 -28 27 -38z
m-113 28 c-3 -8 -6 -5 -6 6 -1 11 2 17 5 13 3 -3 4 -12 1 -19z m-227 -38 c11
-11 20 -24 20 -30 0 -5 7 -10 15 -10 8 0 15 7 15 15 0 8 3 15 8 16 4 0 20 2
36 4 33 5 61 -23 72 -70 3 -16 14 -41 23 -55 23 -34 52 -111 45 -121 -5 -9
-94 42 -114 66 -7 8 -17 12 -23 8 -5 -3 -7 -1 -4 4 7 11 -26 46 -35 37 -3 -3
-9 0 -14 7 -5 8 -3 10 7 4 12 -8 12 -6 0 8 -7 9 -22 17 -32 17 -23 0 -30 11
-34 62 -2 23 -10 45 -17 49 -10 7 -10 9 0 9 6 0 21 -9 32 -20z m264 -20 c-6
-6 -10 -3 -10 10 0 13 4 16 10 10 7 -7 7 -13 0 -20z m-54 -60 c6 -11 8 -20 6
-20 -3 0 -10 9 -16 20 -6 11 -8 20 -6 20 3 0 10 -9 16 -20z m-399 -12 c11 -21
11 -22 -4 -9 -10 7 -17 17 -17 22 0 15 9 10 21 -13z m511 -34 c11 -23 13 -24
24 -9 8 10 14 12 19 6 3 -6 1 -11 -5 -11 -7 0 -8 -6 -1 -19 6 -10 8 -21 5 -23
-3 -3 19 -30 48 -59 29 -30 53 -56 54 -59 3 -17 24 -59 33 -65 16 -9 14 -35
-2 -35 -8 0 -20 12 -28 28 -26 51 -96 157 -112 171 -10 7 -17 18 -17 24 0 5
-10 18 -22 29 -23 20 -33 48 -17 48 5 0 15 -12 21 -26z m-312 2 c0 -2 -8 -10
-17 -17 -16 -13 -17 -12 -4 4 13 16 21 21 21 13z m580 -11 c19 -23 9 -25 -25
-4 -26 17 -27 19 -9 19 12 0 27 -7 34 -15z m-702 -70 c-3 -3 -9 2 -12 12 -6
14 -5 15 5 6 7 -7 10 -15 7 -18z m52 4 c17 -30 6 -34 -14 -4 -9 14 -12 25 -7
25 6 0 15 -9 21 -21z m361 0 c11 -5 17 -14 14 -20 -10 -15 -23 -11 -35 11 -12
23 -7 25 21 9z m-371 -42 c0 -6 -7 -2 -16 9 -15 18 -15 18 -10 0 6 -16 4 -17
-9 -6 -12 10 -13 15 -3 21 13 9 38 -7 38 -24z m762 9 c10 -7 15 -16 11 -19 -3
-4 0 -14 8 -24 8 -10 0 -6 -18 7 -18 14 -32 31 -32 38 -1 15 9 15 31 -2z
m-702 -40 c0 -7 -6 -13 -14 -13 -8 0 -11 8 -8 19 5 19 22 15 22 -6z m652 -14
c-7 -2 -12 -8 -12 -13 0 -6 4 -8 9 -5 5 3 11 0 14 -8 5 -12 0 -12 -26 -5 -18
5 -33 9 -34 9 -2 0 -3 5 -3 10 0 6 8 10 18 8 9 -2 16 2 15 9 -2 8 4 10 14 6
11 -4 13 -8 5 -11z m-627 -12 c3 -5 1 -10 -4 -10 -6 0 -11 5 -11 10 0 6 2 10
4 10 3 0 8 -4 11 -10z m101 -43 c8 3 14 0 14 -5 0 -6 -9 -9 -21 -7 -23 5 -60
46 -52 59 3 4 14 -6 25 -22 12 -19 25 -29 34 -25z m699 -7 c21 -22 36 -40 33
-40 -3 0 7 -14 23 -31 16 -17 29 -40 29 -50 0 -10 4 -19 10 -19 5 0 17 -16 26
-35 9 -19 20 -35 25 -35 5 0 9 -7 9 -15 0 -8 3 -15 8 -15 11 0 46 -69 39 -77
-4 -3 -7 -1 -7 5 0 7 -4 12 -10 12 -19 0 -10 -32 10 -37 12 -3 20 -13 18 -22
-4 -29 12 -72 24 -65 8 5 9 2 5 -10 -4 -10 -7 -23 -7 -29 0 -23 -37 48 -58
113 -14 39 -18 66 -12 68 5 2 -4 17 -20 34 -17 16 -30 36 -30 44 0 8 -4 14 -9
14 -5 0 -13 10 -17 22 -7 23 -63 100 -76 106 -5 2 -8 9 -8 16 0 7 -13 25 -30
41 -30 28 -38 45 -22 45 4 0 26 -18 47 -40z m-527 15 c3 -3 -4 -4 -16 -2 -12
2 -24 6 -28 10 -4 3 4 4 16 2 12 -2 25 -7 28 -10z m512 -116 c0 -6 -4 -7 -10
-4 -5 3 -10 11 -10 16 0 6 5 7 10 4 6 -3 10 -11 10 -16z m-370 -25 c0 -2 -7
-4 -15 -4 -8 0 -15 4 -15 10 0 5 7 7 15 4 8 -4 15 -8 15 -10z m-3815 -31 c-4
-21 -8 -49 -9 -63 -1 -20 -6 -25 -26 -25 -32 0 -37 27 -13 74 31 62 59 70 48
14z m2905 11 c0 -2 -7 -4 -15 -4 -8 0 -15 4 -15 10 0 5 7 7 15 4 8 -4 15 -8
15 -10z m1060 6 c0 -5 -4 -10 -10 -10 -5 0 -10 5 -10 10 0 6 5 10 10 10 6 0
10 -4 10 -10z m260 -10 c0 -5 -2 -10 -4 -10 -3 0 -8 5 -11 10 -3 6 -1 10 4 10
6 0 11 -4 11 -10z m-1274 -57 c-8 -9 -37 18 -30 28 3 5 12 2 21 -6 8 -9 13
-19 9 -22z m1299 28 c3 -5 1 -12 -5 -16 -5 -3 -10 1 -10 9 0 18 6 21 15 7z
m55 -77 c0 -3 -7 -4 -14 -1 -10 4 -14 1 -10 -11 2 -9 -2 -3 -10 13 -24 48 -19
64 9 33 14 -15 25 -30 25 -34z m-1330 26 c12 -8 11 -10 -7 -10 -12 0 -25 5
-28 10 -8 13 15 13 35 0z m-2925 -38 c-3 -3 -1 -10 4 -16 18 -23 30 -75 19
-82 -7 -4 -5 -10 5 -16 10 -5 14 -15 10 -26 -8 -23 -34 -52 -42 -47 -4 2 -8
-7 -9 -21 -1 -13 3 -24 8 -24 7 0 7 -6 0 -20 -6 -11 -8 -41 -6 -67 2 -26 0
-53 -5 -59 -6 -8 -4 -14 6 -18 14 -5 14 -9 0 -36 -9 -17 -20 -28 -25 -25 -4 3
-15 -1 -23 -9 -8 -8 -18 -12 -22 -8 -5 4 -5 1 -1 -6 5 -9 12 -9 27 -1 12 6 23
8 26 5 3 -3 -3 -9 -13 -13 -10 -4 -25 -13 -33 -21 -13 -12 -16 -12 -28 4 -17
24 -16 51 2 58 11 4 14 13 9 31 -4 15 -1 32 7 42 13 15 11 16 -15 9 -26 -6
-28 -5 -17 8 7 8 10 20 6 26 -3 5 2 10 11 10 10 0 14 3 11 7 -4 3 0 15 10 25
9 10 17 30 19 46 4 52 16 107 26 119 5 6 6 28 2 47 -3 21 -2 36 3 36 11 0 11
29 0 46 -10 17 4 25 20 12 7 -6 11 -13 8 -16z m2949 -14 c-3 -5 -8 -7 -12 -5
-4 2 -16 7 -27 11 -15 6 -17 9 -6 16 16 9 53 -9 45 -22z m-2990 7 c6 -17 -13
-65 -26 -65 -4 0 -8 10 -8 21 0 18 -3 19 -14 9 -8 -6 -12 -18 -9 -26 3 -8 1
-14 -4 -14 -5 0 -9 -24 -8 -52 0 -42 4 -53 18 -56 23 -5 22 -39 -2 -52 -27
-14 -30 -13 -24 10 6 22 -12 28 -20 8 -3 -7 -6 -3 -6 9 -1 12 -7 23 -13 26
-18 6 5 42 26 41 18 -2 22 12 6 18 -13 4 13 124 26 121 5 -1 18 -5 28 -9 16
-6 18 -4 13 9 -3 9 -2 17 2 17 5 0 11 -7 15 -15z m4306 -10 c0 -8 -4 -15 -8
-15 -5 0 -9 7 -9 15 0 8 4 15 9 15 4 0 8 -7 8 -15z m-4395 -25 c3 -5 2 -10 -4
-10 -5 0 -13 5 -16 10 -3 6 -2 10 4 10 5 0 13 -4 16 -10z m4045 0 c0 -5 -4
-10 -9 -10 -6 0 -13 5 -16 10 -3 6 1 10 9 10 9 0 16 -4 16 -10z m-65 -10 c3
-5 1 -10 -4 -10 -6 0 -11 5 -11 10 0 6 2 10 4 10 3 0 8 -4 11 -10z m-1970 -14
c27 -10 63 -12 114 -8 89 6 92 -11 4 -24 l-58 -8 55 -7 c51 -7 98 -2 159 17
20 6 22 4 16 -15 -9 -30 6 -26 56 14 66 52 74 42 21 -25 l-47 -59 -87 6 c-61
4 -88 3 -88 -5 0 -19 17 -23 109 -27 l90 -4 47 44 c42 40 74 57 74 39 0 -3
-18 -29 -40 -56 -22 -28 -40 -57 -40 -65 0 -48 -87 -101 -135 -83 -18 7 -36 5
-69 -10 -42 -17 -56 -17 -56 1 0 18 52 41 110 49 58 8 100 30 100 53 0 6 -20
7 -52 2 -94 -13 -129 -11 -144 10 -11 15 -25 18 -71 16 -76 -3 -87 -7 -103
-36 -15 -29 -30 -24 -30 10 0 18 -7 26 -24 31 -34 8 -84 64 -88 98 -2 23 2 33
22 43 33 17 105 16 155 -1z m1141 -7 c3 -6 1 -15 -7 -19 -14 -9 -49 5 -49 20
0 14 47 13 56 -1z m1264 -9 c0 -5 -5 -10 -11 -10 -5 0 -7 5 -4 10 3 6 8 10 11
10 2 0 4 -4 4 -10z m30 -39 c5 -11 6 -22 1 -25 -4 -3 -13 6 -19 19 -14 30 2
34 18 6z m-1603 -59 c12 -8 28 -12 35 -10 7 3 18 -6 23 -19 10 -24 11 -24 30
-6 11 10 32 19 48 21 23 3 27 0 27 -21 0 -25 -23 -42 -42 -31 -6 4 -9 1 -6 -7
3 -8 14 -15 26 -17 20 -3 27 -14 23 -36 -1 -5 -3 -23 -5 -40 -2 -17 -4 -35 -6
-41 -5 -21 1 -36 22 -57 12 -12 23 -29 25 -37 2 -20 -15 -41 -34 -41 -19 0
-102 90 -97 104 6 15 -11 72 -20 68 -4 -2 -17 10 -29 25 -12 15 -25 30 -29 31
-21 9 -4 22 30 23 20 1 29 3 19 6 -15 4 -16 7 -5 21 10 12 10 14 1 8 -8 -4
-13 -2 -13 4 0 6 -4 9 -9 6 -16 -10 -72 20 -86 47 -7 14 -11 28 -8 31 6 5 46
-11 80 -32z m-2887 14 c0 -11 -19 -15 -25 -6 -3 5 1 10 9 10 9 0 16 -2 16 -4z
m4530 -25 c5 -11 9 -37 9 -58 -2 -34 -2 -35 -6 -8 -3 17 -8 35 -12 40 -14 18
-21 45 -11 45 5 0 14 -9 20 -19z m60 -9 c0 -10 5 -23 12 -30 7 -7 9 -12 4 -12
-4 0 0 -7 8 -16 9 -8 14 -20 11 -25 -3 -5 0 -19 7 -31 16 -30 20 -71 7 -79 -7
-4 -4 -13 7 -24 17 -17 17 -19 1 -47 -15 -26 -15 -29 -2 -24 9 3 15 0 15 -9 0
-8 -3 -15 -7 -15 -5 0 -7 -21 -7 -46 1 -25 -2 -61 -6 -80 -6 -27 -3 -41 15
-68 25 -37 40 -76 30 -76 -12 0 -35 29 -35 45 0 8 -7 18 -16 22 -9 3 -15 16
-14 32 4 50 1 67 -9 52 -5 -8 -7 -20 -4 -28 3 -7 2 -21 -2 -30 -10 -23 -10
-50 -1 -90 8 -35 23 -41 46 -20 8 6 11 8 8 3 -4 -5 2 -22 13 -37 16 -23 17
-29 6 -29 -9 0 -20 12 -25 28 -7 18 -11 21 -11 9 -1 -10 -5 -15 -11 -12 -5 3
-7 0 -4 -8 3 -8 16 -20 30 -27 29 -16 30 -21 3 -39 -18 -11 -23 -11 -30 1 -13
19 -11 30 4 22 8 -5 8 -2 -2 9 -15 19 -26 23 -15 5 4 -7 3 -8 -5 -4 -6 4 -9
12 -5 17 8 13 -27 39 -41 32 -5 -4 -7 -3 -3 2 4 4 2 17 -4 29 -7 11 -13 23
-13 26 0 3 -6 14 -12 25 -6 11 -12 25 -12 30 -1 6 -4 18 -7 28 -3 10 0 24 6
32 15 18 -1 20 -19 3 -7 -7 -11 -8 -10 -3 3 15 -12 65 -20 65 -4 0 -17 18 -29
39 -20 35 -21 39 -5 45 9 4 21 1 27 -5 8 -8 8 -13 -1 -16 -8 -3 -7 -10 5 -24
9 -11 18 -24 18 -29 1 -6 2 -14 3 -20 0 -5 6 -10 11 -10 6 0 8 10 5 23 -13 56
-13 77 -3 71 7 -5 9 1 5 16 -7 26 2 80 13 80 4 0 12 -10 18 -22 l11 -23 1 25
c1 25 1 25 10 3 5 -13 15 -23 22 -23 8 0 13 -12 13 -29 0 -19 -4 -27 -13 -24
-7 3 -10 13 -7 24 4 11 2 19 -4 19 -14 0 -14 -25 -1 -50 5 -10 11 -32 12 -49
2 -33 28 -53 28 -21 0 10 -4 22 -10 25 -5 3 -10 13 -10 21 0 8 5 12 10 9 10
-6 15 9 10 30 -4 21 -7 99 -3 88 8 -24 22 -13 19 15 -3 18 -9 26 -19 24 -9 -1
-18 2 -21 7 -3 5 0 8 7 7 6 0 13 4 14 9 3 13 -16 84 -28 107 -12 24 -11 68 1
68 6 0 10 -8 10 -18z m-3503 -69 c7 -6 17 -13 23 -15 8 -2 8 -17 2 -46 -8 -34
-7 -46 5 -58 8 -8 13 -24 10 -34 -3 -11 -1 -23 4 -26 17 -10 10 -52 -11 -59
-11 -3 -20 -12 -20 -20 0 -9 -11 -13 -34 -12 -19 1 -32 5 -30 9 7 11 -36 30
-52 24 -8 -3 -14 1 -14 8 0 19 -25 27 -39 13 -9 -9 -14 -8 -21 3 -8 12 -10 12
-16 -3 -5 -14 -13 -17 -38 -11 -43 9 -78 34 -73 53 2 9 8 15 14 14 7 -1 8 9 4
30 -9 44 -2 95 10 76 7 -12 9 -12 9 1 0 13 1 13 10 0 7 -12 11 -8 16 18 5 26
9 30 20 21 11 -9 15 -7 20 5 3 9 10 16 16 16 5 0 7 -4 3 -9 -3 -5 -1 -12 5
-16 5 -3 11 2 11 12 1 17 2 17 6 1 6 -24 31 -23 68 2 32 21 72 23 92 3z m2658
7 c3 -5 1 -10 -4 -10 -6 0 -11 5 -11 10 0 6 2 10 4 10 3 0 8 -4 11 -10z
m-3675 -10 c0 -5 -4 -10 -10 -10 -5 0 -10 5 -10 10 0 6 5 10 10 10 6 0 10 -4
10 -10z m4277 -16 c-7 -7 -37 7 -37 17 0 6 9 5 21 -1 11 -7 19 -14 16 -16z
m-862 -4 c3 -5 2 -10 -4 -10 -5 0 -13 5 -16 10 -3 6 -2 10 4 10 5 0 13 -4 16
-10z m1080 -30 c0 -22 -3 -40 -7 -40 -10 0 -10 42 -2 64 9 23 10 20 9 -24z
m-4515 16 c0 -8 -4 -18 -10 -21 -5 -3 -10 3 -10 14 0 12 5 21 10 21 6 0 10 -6
10 -14z m4340 -18 c17 -26 41 -104 41 -131 0 -12 5 -17 14 -13 7 2 16 -3 20
-12 3 -9 3 -13 -1 -9 -4 4 -12 2 -19 -3 -15 -13 -48 54 -40 81 5 13 1 19 -10
19 -9 0 -14 4 -11 8 3 5 -4 23 -15 40 -22 38 -23 42 -6 42 7 0 19 -10 27 -22z
m-865 -38 c9 -27 21 -50 26 -50 6 0 8 -4 4 -9 -3 -5 -1 -12 4 -16 6 -3 7 -13
4 -21 -3 -8 1 -27 8 -41 9 -18 10 -27 3 -30 -6 -2 -9 -24 -7 -53 1 -28 -1 -50
-5 -50 -14 0 -42 40 -43 63 -1 16 -3 17 -6 5 -3 -10 -10 -15 -20 -11 -12 5
-14 1 -9 -15 6 -17 4 -21 -9 -16 -9 4 -15 3 -14 -2 1 -5 1 -18 0 -28 -1 -20
-1 -20 -15 0 -12 16 -12 21 -1 34 10 11 12 25 6 45 l-8 30 -6 -27 c-5 -20 -12
-26 -25 -22 -14 5 -15 4 -2 -5 13 -9 13 -13 -3 -28 -18 -17 -19 -17 -37 5 -10
12 -26 22 -36 22 -15 0 -14 4 7 28 33 35 28 79 -10 109 -14 11 -13 12 5 13 13
0 24 -8 27 -19 2 -10 14 -24 26 -30 18 -10 21 -9 21 8 0 26 15 34 29 17 9 -10
8 -15 -4 -20 -13 -5 -13 -9 -3 -26 17 -26 38 -26 38 1 0 11 5 17 10 14 6 -3
18 1 27 11 16 15 16 17 0 29 -19 13 -23 35 -7 35 15 0 12 21 -5 40 -14 16 -11
60 5 60 5 0 16 -22 25 -50z m-3011 18 c-6 -10 -4 -10 8 0 14 11 16 10 14 -5
-2 -11 -10 -17 -20 -15 -14 3 -16 0 -7 -17 12 -22 5 -30 -22 -25 -12 1 -17 -2
-13 -11 2 -7 -2 -16 -11 -19 -11 -5 -14 -2 -9 10 5 14 4 15 -9 4 -14 -11 -13
-14 2 -25 14 -10 20 -10 25 -2 5 7 8 0 8 -15 0 -18 -5 -28 -15 -28 -8 0 -15 5
-15 11 0 5 -4 7 -10 4 -5 -3 -10 2 -11 12 0 10 -2 26 -4 36 -2 11 -1 16 3 13
3 -4 11 7 18 24 7 16 20 30 27 30 8 0 17 7 21 15 3 8 10 15 16 15 6 0 8 -6 4
-12z m2891 2 c3 -5 1 -10 -4 -10 -6 0 -11 5 -11 10 0 6 2 10 4 10 3 0 8 -4 11
-10z m35 -26 c0 -8 -4 -12 -10 -9 -5 3 -10 10 -10 16 0 5 5 9 10 9 6 0 10 -7
10 -16z m1057 -1 c2 -6 -1 -15 -8 -19 -8 -4 -9 -3 -5 4 4 7 1 12 -8 12 -8 0
-17 4 -20 8 -3 5 5 8 16 7 12 -1 23 -6 25 -12z m-3950 -18 c0 -8 -4 -12 -9 -9
-5 3 -6 10 -3 15 9 13 12 11 12 -6z m2833 -5 c0 -21 -15 -27 -25 -10 -7 12 2
30 16 30 5 0 9 -9 9 -20z m110 -1 c0 -5 -4 -9 -10 -9 -5 0 -10 7 -10 16 0 8 5
12 10 9 6 -3 10 -10 10 -16z m404 -21 c-4 -6 -10 -5 -15 3 -14 22 -10 33 6 19
8 -7 12 -17 9 -22z m-3228 14 c10 -6 26 -44 29 -67 2 -20 -7 -25 -27 -14 -15
8 -17 14 -9 22 14 14 14 27 1 27 -5 0 -10 -6 -10 -14 0 -17 -18 -25 -42 -18
-22 5 -23 28 -3 36 8 3 15 12 15 21 0 16 27 20 46 7z m-142 -31 c3 -5 -3 -11
-14 -14 -20 -5 -26 3 -13 16 9 10 21 9 27 -2z m-99 -59 c7 -32 6 -33 -15 -22
-14 8 -18 15 -12 23 5 7 8 20 6 31 -5 32 13 3 21 -32z m2711 33 c8 -8 21 -12
28 -9 8 3 17 1 20 -4 9 -16 -63 -5 -80 12 -14 15 -14 16 1 16 9 0 23 -7 31
-15z m790 -42 c-4 -4 -11 -1 -16 7 -16 25 -11 35 7 17 9 -9 13 -20 9 -24z
m-609 -17 c23 -8 30 -15 24 -24 -6 -11 -15 -9 -42 7 -19 12 -44 21 -56 21 -13
0 -23 4 -23 10 0 10 44 4 97 -14z m-1967 -6 c86 -17 105 -23 123 -38 9 -8 17
-21 17 -29 0 -7 13 -16 29 -19 29 -6 48 -38 30 -49 -4 -3 -4 -16 1 -29 12 -33
-32 -249 -67 -324 -12 -24 -19 -30 -28 -22 -9 7 -21 7 -40 0 -24 -9 -30 -7
-51 15 -12 13 -19 27 -15 29 4 3 7 26 5 52 -2 25 2 56 9 68 6 11 13 28 14 36
16 90 19 127 11 137 -5 7 -5 12 2 15 15 5 -19 46 -40 50 -8 2 -20 12 -27 23
-11 18 -12 18 -13 3 0 -22 -20 -24 -20 -3 0 9 -7 15 -16 13 -27 -5 -41 27 -21
47 9 9 17 23 17 32 0 10 5 13 18 8 9 -4 37 -11 62 -15z m-958 -26 c-2 -10 -8
-21 -13 -22 -5 -2 -7 -8 -4 -12 3 -5 1 -11 -4 -14 -5 -4 -13 -1 -17 5 -5 8 -3
9 7 4 8 -5 5 2 -6 14 -20 23 -20 23 0 37 24 18 41 13 37 -12z m415 -34 c18
-21 36 -30 56 -30 17 0 27 -3 24 -7 -4 -3 2 -12 13 -20 16 -11 17 -17 8 -32
-16 -26 -69 -21 -82 8 -5 12 -26 26 -49 33 -22 7 -35 14 -28 16 20 7 12 20
-19 31 -32 11 -37 24 -17 45 16 18 56 -1 94 -44z m71 48 c-3 -7 -11 -13 -18
-13 -7 0 -15 6 -17 13 -3 7 4 12 17 12 13 0 20 -5 18 -12z m-800 -65 c1 -26
-4 -53 -9 -60 -6 -7 -9 -20 -5 -29 4 -10 -5 -24 -24 -41 -17 -13 -30 -31 -30
-38 0 -15 -24 -26 -36 -17 -5 4 -8 5 -7 3 2 -2 -2 -10 -9 -18 -6 -7 -8 -16 -4
-20 3 -3 6 -1 6 5 0 7 8 12 17 12 13 0 14 -3 5 -12 -7 -7 -12 -20 -12 -30 0
-10 -6 -18 -12 -18 -10 0 -9 -3 1 -9 11 -7 9 -15 -10 -40 -12 -17 -30 -31 -39
-31 -9 0 -23 -13 -33 -28 -43 -73 -150 -139 -182 -112 -25 20 -17 45 28 96 47
54 70 100 93 189 21 84 37 106 76 103 28 -3 35 2 54 37 33 59 45 70 55 53 8
-10 12 -9 24 7 43 59 52 59 53 -2z m567 38 c5 -1 4 -6 -2 -12 -13 -13 -43 -5
-43 10 0 5 8 8 18 6 9 -2 21 -4 27 -4z m-300 -21 c-3 -5 6 -17 20 -26 21 -14
23 -19 13 -32 -10 -12 -10 -14 0 -8 7 4 12 2 12 -6 0 -9 3 -9 10 2 5 8 7 23 4
34 -4 12 -2 16 5 12 17 -11 13 -33 -11 -58 -13 -13 -22 -22 -21 -20 1 3 -4 17
-12 32 -8 15 -11 30 -8 34 4 3 -1 6 -10 6 -13 0 -15 -5 -7 -25 5 -14 7 -26 5
-26 -3 -1 -10 -2 -17 -3 -6 0 -16 -16 -21 -35 -6 -23 -11 -30 -16 -22 -5 7
-11 12 -15 12 -20 -3 -26 1 -26 14 0 8 7 15 15 15 14 0 19 15 17 49 0 7 12 24
26 37 27 24 48 32 37 14z m710 -10 c3 -5 11 -10 16 -10 6 0 7 5 4 10 -9 15 3
12 24 -7 11 -9 18 -20 15 -25 -3 -4 6 -12 19 -17 29 -11 43 -58 18 -58 -9 0
-18 4 -21 8 -3 4 -11 4 -19 0 -10 -7 -8 -13 9 -29 13 -12 20 -27 17 -35 -3 -8
-3 -18 0 -21 9 -9 13 -56 5 -56 -12 0 -63 48 -60 56 4 15 -23 55 -33 49 -5 -4
-9 -1 -9 4 0 6 -8 11 -17 12 -10 0 -13 3 -6 5 7 3 21 1 31 -5 23 -12 36 -3 21
15 -6 7 -18 10 -27 7 -13 -4 -12 -2 3 11 14 12 16 19 7 22 -6 3 -9 10 -6 16 4
6 1 9 -7 6 -8 -3 -19 2 -25 11 -9 12 -8 18 5 28 20 15 28 16 36 3z m2560 -1
c11 -17 -1 -21 -15 -4 -8 9 -8 15 -2 15 6 0 14 -5 17 -11z m545 -15 c0 -17
-26 -19 -36 -3 -7 12 15 31 28 23 4 -3 8 -12 8 -20z m-630 -13 c0 -5 3 -17 7
-27 4 -11 3 -15 -4 -11 -14 9 -24 47 -12 47 5 0 9 -4 9 -9z m-2518 -22 c17 -9
18 -13 7 -20 -23 -15 -39 -10 -39 11 0 23 4 24 32 9z m3190 -20 c16 -9 18 -13
7 -20 -14 -8 -39 6 -39 22 0 12 7 11 32 -2z m-608 -25 c3 -8 2 -12 -4 -9 -6 3
-10 10 -10 16 0 14 7 11 14 -7z m-3369 -14 c-10 -11 -22 -20 -28 -20 -5 0 1 9
14 20 31 25 37 25 14 0z m564 1 c9 -16 8 -18 -9 -14 -21 5 -25 15 -13 26 9 10
11 9 22 -12z m3499 -1 c4 -12 3 -13 -10 -3 -8 7 -17 10 -20 7 -3 -3 -9 0 -13
6 -5 8 0 11 16 8 12 -1 25 -10 27 -18z m-3884 -9 c4 -5 -2 -8 -11 -7 -10 2
-21 -4 -25 -13 -5 -12 -7 -11 -7 7 -1 15 5 22 18 22 11 0 22 -4 25 -9z m3836
-12 c0 -6 -4 -7 -10 -4 -5 3 -10 11 -10 16 0 6 5 7 10 4 6 -3 10 -11 10 -16z
m394 -49 c7 -24 6 -24 -8 -6 -9 11 -16 29 -16 40 1 17 2 18 9 6 5 -8 12 -26
15 -40z m-4476 22 c15 4 19 2 15 -8 -3 -8 -11 -14 -19 -14 -8 0 -14 -4 -14
-10 0 -5 -6 -10 -13 -10 -9 0 -12 10 -9 31 3 20 7 27 12 19 4 -7 17 -10 28 -8z
m4319 -1 c0 -11 -6 -17 -14 -14 -18 7 -17 33 1 33 8 0 14 -8 13 -19z m-282
-11 c3 -5 2 -10 -4 -10 -5 0 -13 5 -16 10 -3 6 -2 10 4 10 5 0 13 -4 16 -10z
m70 0 c3 -5 1 -10 -4 -10 -6 0 -11 5 -11 10 0 6 2 10 4 10 3 0 8 -4 11 -10z
m-3977 -32 c10 -14 10 -23 1 -39 -8 -15 -8 -19 0 -15 6 4 11 2 11 -3 0 -6 -5
-11 -11 -11 -7 0 -9 -11 -6 -28 3 -15 3 -33 -1 -38 -8 -12 -52 -37 -52 -30 0
15 14 35 21 30 5 -3 9 3 9 12 0 14 -3 15 -12 6 -17 -17 -28 -15 -28 6 0 14 -2
15 -10 2 -13 -21 -12 -30 4 -30 8 0 12 -9 11 -25 -2 -14 1 -23 6 -20 5 4 6 0
3 -8 -6 -16 -26 -15 -70 3 -27 12 -30 16 -21 32 9 14 9 23 -1 38 -10 17 -10
20 3 20 25 0 17 29 -10 36 -25 6 -25 6 -5 24 11 9 20 23 20 30 0 14 14 5 16
-11 1 -5 2 -12 3 -16 0 -3 12 4 26 17 24 23 25 23 45 5 11 -10 20 -13 20 -7 0
6 -5 14 -10 17 -13 8 -3 25 13 22 7 -1 18 -10 25 -19z m4207 -37 c3 -5 0 -13
-6 -17 -7 -4 -9 -3 -5 4 3 5 0 13 -6 15 -9 4 -10 6 -1 6 6 1 14 -3 18 -8z m33
-16 c-3 -3 -9 2 -12 12 -6 14 -5 15 5 6 7 -7 10 -15 7 -18z m40 -17 c6 -13 11
-17 11 -9 1 8 8 4 20 -10 19 -24 19 -24 -2 -37 -20 -12 -20 -13 -2 -8 19 6 19
5 2 -8 -9 -7 -15 -20 -12 -28 4 -9 -1 -18 -10 -22 -9 -3 -18 0 -21 9 -4 8 -13
15 -21 15 -10 0 -12 6 -8 20 4 13 2 20 -5 18 -6 -2 -19 7 -27 20 -15 21 -14
22 9 22 13 0 33 -7 45 -15 20 -14 21 -13 16 5 -3 11 -9 20 -14 20 -5 0 -9 7
-9 15 0 22 15 18 28 -7z m-4243 -48 c-3 -5 -11 -10 -16 -10 -6 0 -7 5 -4 10 3
6 11 10 16 10 6 0 7 -4 4 -10z m4415 -40 c12 -16 20 -30 17 -30 -2 0 -16 14
-30 30 -15 17 -23 30 -18 30 5 0 19 -13 31 -30z m-110 -30 c0 -5 -4 -10 -9
-10 -6 0 -13 5 -16 10 -3 6 1 10 9 10 9 0 16 -4 16 -10z m-90 -10 c0 -5 -2
-10 -4 -10 -3 0 -8 5 -11 10 -3 6 -1 10 4 10 6 0 11 -4 11 -10z m-4300 -49 c0
-5 -7 -12 -16 -15 -14 -5 -15 -4 -4 9 14 17 20 19 20 6z m4335 -1 c-3 -5 -10
-10 -16 -10 -5 0 -9 5 -9 10 0 6 7 10 16 10 8 0 12 -4 9 -10z m-5731 -27 c-15
-78 -25 -471 -12 -479 4 -3 8 -19 8 -35 0 -16 12 -48 26 -70 20 -33 23 -43 13
-55 -9 -11 -9 -18 -1 -26 9 -9 12 -9 12 0 0 7 7 12 15 12 11 0 14 -7 9 -25 -5
-20 -3 -24 10 -19 9 3 16 10 16 15 0 20 28 7 34 -16 4 -16 11 -22 21 -19 8 4
15 2 16 -2 4 -43 7 -55 14 -61 4 -5 5 0 2 10 -6 15 -4 16 16 6 12 -7 28 -18
35 -26 7 -7 21 -13 31 -13 14 0 17 -6 13 -25 -3 -19 0 -25 13 -25 12 0 15 -5
10 -20 -3 -10 0 -32 8 -47 9 -17 15 -55 14 -95 0 -37 2 -71 6 -74 4 -4 2 -13
-4 -21 -6 -7 -9 -24 -7 -38 3 -13 1 -22 -3 -19 -9 5 -34 -44 -30 -59 1 -5 -3
-6 -9 -2 -5 3 -10 2 -10 -4 0 -6 -11 -13 -24 -17 -15 -3 -29 -17 -35 -35 -5
-16 -14 -29 -19 -29 -5 0 -9 -16 -10 -36 -2 -39 -16 -64 -37 -64 -7 0 -16 -7
-19 -15 -4 -13 -10 -14 -26 -5 -16 9 -20 8 -20 -5 0 -8 9 -15 20 -15 21 0 27
-15 10 -25 -18 -11 -11 -21 17 -23 15 -1 30 -7 33 -12 4 -6 17 -9 30 -8 14 2
25 -3 26 -9 1 -7 2 -16 3 -20 0 -4 7 2 15 13 25 33 49 7 61 -67 6 -35 19 -77
29 -92 l19 -28 -41 -42 c-23 -24 -42 -47 -42 -52 0 -6 -16 -23 -36 -39 -33
-26 -74 -81 -74 -98 0 -17 24 -7 59 24 19 17 36 39 36 47 0 9 5 16 10 16 28 2
54 18 60 38 6 19 8 19 12 5 6 -23 19 -23 40 1 18 22 22 44 25 149 3 61 0 75
-14 83 -26 14 -22 37 10 57 21 13 27 25 27 50 0 40 14 42 21 2 6 -29 7 -29 35
-14 16 8 28 20 26 26 -1 6 9 14 23 18 19 4 26 13 28 36 3 28 6 30 47 32 64 2
59 -29 -8 -63 -26 -13 -35 -45 -13 -45 9 0 16 -7 16 -15 0 -28 37 -15 68 24
36 44 66 58 87 41 19 -16 19 -71 0 -117 -21 -50 -19 -99 6 -133 21 -27 21 -30
5 -54 -18 -28 -21 -56 -7 -56 5 0 22 11 38 24 40 33 88 42 119 21 24 -16 25
-19 18 -85 -7 -79 -10 -76 73 -83 36 -4 55 -1 63 8 6 8 21 15 33 17 12 2 23 9
23 16 1 6 3 15 4 20 2 4 4 29 4 56 1 46 3 50 33 63 31 12 35 11 65 -16 l32
-29 -13 -68 c-16 -79 -17 -118 -6 -154 6 -21 5 -23 -6 -12 -19 17 -29 15 -29
-7 0 -11 19 -30 48 -48 l49 -30 32 56 c45 78 98 144 126 155 18 7 33 3 71 -23
27 -17 90 -51 139 -75 83 -40 95 -43 150 -39 33 3 67 4 75 4 78 -7 93 -10 100
-21 6 -9 12 -10 30 0 20 11 25 9 39 -9 16 -21 17 -21 121 -6 59 9 131 14 165
11 33 -3 87 -2 120 2 59 7 145 -5 145 -20 0 -5 7 -8 15 -8 8 0 32 -9 52 -20
21 -11 52 -20 70 -20 26 0 32 -4 38 -28 3 -16 2 -40 -3 -53 -11 -27 0 -115 17
-148 6 -11 11 -33 11 -50 0 -21 11 -43 35 -70 24 -26 35 -48 35 -68 0 -20 10
-41 30 -61 17 -18 30 -41 30 -52 0 -11 4 -20 10 -20 5 0 9 -24 9 -55 -1 -30 4
-69 11 -86 11 -27 11 -33 -1 -43 -15 -12 -14 -76 1 -76 13 0 60 -86 60 -109 0
-12 -4 -29 -9 -39 -53 -105 -81 -204 -74 -261 8 -73 -36 -141 -93 -141 -32 0
-114 -68 -114 -96 0 -13 -6 -27 -14 -31 -7 -4 -18 -18 -24 -30 -8 -14 -25 -24
-53 -28 -22 -4 -43 -13 -46 -21 -3 -8 -11 -14 -17 -14 -19 0 -39 -49 -26 -65
7 -9 6 -16 -5 -25 -8 -7 -15 -18 -15 -25 0 -34 -44 -143 -66 -163 -42 -37
-124 -28 -124 14 0 26 -18 32 -38 12 -9 -9 -12 -8 -12 5 0 10 -14 23 -33 31
-38 16 -100 85 -92 103 2 7 -3 13 -13 13 -14 0 -15 2 -2 10 12 8 12 10 -2 15
-10 4 -14 14 -10 27 4 17 2 20 -13 15 -13 -6 -16 -4 -10 10 12 33 10 38 -12
35 -13 -2 -23 2 -23 7 0 6 7 11 15 11 17 0 17 2 9 24 -3 8 -12 12 -19 10 -18
-7 -31 16 -14 26 18 12 18 49 0 61 -11 7 -12 12 -5 15 7 3 10 15 7 27 -10 47
-11 49 -34 37 -13 -8 -25 -8 -31 -2 -6 6 4 16 29 29 38 20 38 21 38 79 0 54
-2 59 -22 62 -28 4 -31 32 -3 32 18 0 24 12 23 48 -1 6 3 12 9 12 5 0 7 4 4 9
-4 5 -1 22 6 38 6 15 10 31 10 36 -1 4 9 13 23 19 31 14 31 21 1 38 -31 16
-34 31 -36 168 0 95 -4 121 -24 165 -23 53 -44 69 -101 82 -16 4 -33 12 -37
18 -6 9 -12 9 -28 0 -30 -19 -46 -16 -70 14 -18 24 -20 35 -14 95 4 41 3 68
-3 68 -16 0 -50 -43 -57 -73 -5 -21 -14 -29 -38 -34 l-31 -6 7 -76 c6 -80 -2
-108 -28 -98 -19 8 -22 -13 -4 -31 10 -10 10 -15 -2 -22 -10 -7 -11 -10 -2
-10 6 0 12 -9 12 -20 0 -11 -5 -20 -11 -20 -6 0 1 -14 15 -31 14 -17 27 -38
28 -47 0 -9 2 -21 3 -27 2 -5 3 -16 4 -23 0 -7 5 -11 10 -8 5 3 11 -1 15 -9 3
-8 -3 -19 -12 -25 -15 -10 -14 -11 5 -7 31 7 38 -8 13 -31 l-20 -19 25 -11
c14 -6 25 -19 25 -28 0 -20 -31 -74 -43 -74 -4 0 3 -15 17 -33 15 -19 26 -39
26 -45 0 -7 5 -12 10 -12 6 0 10 -6 10 -12 0 -7 11 -26 25 -42 14 -16 25 -33
25 -38 0 -9 -37 -46 -79 -80 -13 -11 -21 -29 -21 -48 0 -21 -9 -39 -26 -55
-26 -24 -74 -138 -74 -174 0 -10 -9 -26 -19 -35 -18 -16 -18 -21 -4 -79 8 -34
15 -69 15 -77 -1 -15 22 -79 39 -112 5 -10 5 -19 -1 -23 -16 -10 -12 -45 8
-73 10 -15 21 -35 25 -44 3 -9 31 -35 61 -57 31 -23 63 -55 71 -71 8 -16 35
-54 60 -85 25 -30 45 -58 45 -62 0 -4 -23 -31 -52 -60 -61 -62 -57 -75 30 -94
71 -15 80 -23 88 -82 8 -58 -11 -133 -40 -152 -33 -24 -90 -19 -124 10 -42 36
-66 31 -123 -22 l-49 -46 -108 -9 c-134 -12 -341 -4 -406 17 -27 8 -74 15
-105 15 -34 0 -83 10 -126 26 -38 14 -126 45 -195 69 -115 39 -131 48 -189
101 -35 33 -79 83 -97 111 -36 57 -61 69 -121 60 -37 -6 -109 19 -145 50 -14
13 -17 12 -23 -6 -9 -29 -38 -26 -77 7 -18 16 -41 31 -50 35 -10 4 -18 13 -18
21 0 8 -11 16 -27 18 -19 2 -32 14 -46 40 -11 23 -33 45 -53 54 -39 19 -67 52
-57 68 4 6 7 31 8 56 l0 45 53 3 c28 2 52 5 52 8 0 2 -6 13 -12 24 -10 16 -10
24 0 40 7 11 10 31 6 45 -5 20 -2 25 13 25 29 0 35 -11 15 -27 -10 -8 -2 -7
21 4 46 21 45 41 -3 65 -19 10 -37 28 -40 39 -3 12 -12 25 -20 29 -8 4 -30 14
-47 23 -32 16 -33 15 -45 -11 -8 -15 -22 -27 -32 -27 -10 0 -24 -9 -30 -20
-26 -48 -71 -49 -91 -2 -17 40 -12 132 10 153 8 8 15 23 15 32 1 9 7 33 14 54
11 30 11 35 0 31 -8 -3 -14 -11 -14 -19 0 -8 -8 -22 -18 -32 -10 -10 -21 -26
-25 -35 -9 -23 -25 -18 -59 19 -36 40 -41 106 -7 97 19 -5 20 -3 14 29 -5 26
-1 44 16 74 30 52 29 51 39 34 14 -22 20 -9 25 57 4 47 1 71 -15 108 -18 42
-23 47 -46 42 -19 -3 -24 -1 -20 10 3 8 -4 18 -19 25 -26 12 -36 31 -11 22 27
-10 28 18 1 57 -19 30 -25 48 -20 69 4 20 2 28 -7 27 -42 -1 -57 4 -52 18 4 8
12 15 19 15 11 0 12 8 1 43 -9 33 -17 42 -34 42 -26 1 -61 47 -56 73 13 70 15
73 33 67 27 -8 32 7 15 39 -7 16 -14 35 -14 42 0 8 -4 14 -10 14 -11 0 -14
-20 -11 -57 1 -15 -4 -23 -13 -23 -8 0 -19 -8 -25 -17 -8 -15 -12 -16 -23 -5
-15 15 -15 92 1 101 8 6 8 16 0 40 -11 32 -6 106 10 126 10 12 -9 125 -21 125
-4 0 -8 6 -8 14 0 9 12 16 33 18 28 3 32 6 32 33 0 25 -4 31 -27 33 -16 2 -30
11 -33 23 -4 10 -10 19 -15 19 -5 0 -12 17 -15 38 -3 20 -10 45 -16 54 -5 10
-9 29 -9 43 0 14 -4 25 -10 25 -17 0 -11 28 16 86 21 44 29 53 40 43 11 -9 16
-6 25 15 7 14 29 37 50 51 21 14 48 44 60 68 12 23 33 54 46 69 31 32 25 63
-9 53 -13 -4 -36 -16 -51 -27 l-29 -20 11 21 c14 25 66 66 102 80 21 8 26 14
22 35 -4 21 -2 26 16 26 17 0 21 -6 21 -30 0 -34 15 -40 25 -11 4 12 13 18 24
16 20 -4 31 19 31 68 0 15 5 27 10 27 6 0 10 -7 10 -15 0 -22 17 -18 30 5 6
11 15 18 20 15 15 -9 50 14 60 41 10 25 30 33 30 12 0 -7 14 3 30 22 29 35 29
35 9 50 -13 10 -18 22 -13 33 9 23 35 21 41 -3 3 -11 9 -20 14 -20 17 0 19 21
4 56 -20 48 -20 49 15 74 26 18 33 20 46 9 14 -11 15 -10 12 11 -2 17 -8 24
-20 22 -25 -4 -22 19 3 25 16 5 19 11 15 32 l-6 26 19 -23 c21 -24 25 -22 35
21 9 40 -9 67 -45 67 -24 0 -30 4 -27 18 2 9 10 17 18 17 17 0 32 29 24 49 -5
14 -46 36 -68 36 -7 0 -22 21 -33 48 -12 26 -35 62 -52 81 -27 30 -30 40 -25
70 4 20 11 41 16 48 9 12 2 54 -15 88 -6 11 -11 56 -13 100 -2 64 4 102 28
189 16 60 38 128 48 151 10 23 23 68 30 100 14 66 29 105 41 105 5 0 6 -12 3
-27z m1326 -14 c0 -5 13 -6 29 -3 39 8 52 -23 20 -49 -21 -17 -22 -17 -36 0
-14 17 -14 17 -9 1 6 -19 -9 -23 -38 -12 -18 7 -19 14 -7 47 8 22 41 34 41 16z
m-106 -72 c15 -19 26 -41 26 -50 0 -10 6 -17 14 -17 23 0 31 -41 12 -56 -9 -6
-16 -16 -15 -20 4 -19 -14 -94 -23 -94 -5 0 -6 6 -2 13 4 6 -1 4 -12 -5 -28
-24 -78 -18 -82 11 -3 19 -6 20 -20 9 -9 -7 -13 -8 -9 -2 4 7 0 17 -8 24 -11
9 -12 16 -5 25 8 10 8 15 -1 20 -6 4 -16 1 -21 -6 -6 -10 -7 -6 -2 11 4 14 7
32 8 40 1 8 9 18 19 22 9 4 17 17 17 29 0 12 8 23 19 26 10 2 24 16 31 29 17
32 24 30 54 -9z m177 0 c-1 -12 -15 -9 -19 4 -3 6 1 10 8 8 6 -3 11 -8 11 -12z
m-334 -93 c2 -6 -3 -11 -12 -11 -8 0 -15 7 -15 15 0 15 22 12 27 -4z m2473
-34 c0 -5 -5 -10 -11 -10 -5 0 -7 5 -4 10 3 6 8 10 11 10 2 0 4 -4 4 -10z
m-2507 -25 c-3 -8 -13 -15 -22 -14 -10 0 -11 2 -3 6 6 2 12 11 12 19 0 9 4 13
10 9 5 -3 7 -12 3 -20z m361 7 c2 -4 -5 -9 -17 -9 -17 -2 -19 0 -7 7 18 12 18
12 24 2z m2086 -26 c0 -18 -10 -25 -26 -19 -8 3 -14 16 -14 29 0 22 3 23 20
14 11 -6 20 -17 20 -24z m-2507 4 c9 -11 12 -20 7 -20 -6 0 -10 -5 -10 -11 0
-5 4 -8 8 -5 10 6 8 -51 -2 -61 -3 -4 -12 -1 -18 5 -15 15 -49 15 -85 0 -25
-10 -26 -12 -8 -16 36 -8 45 -21 33 -48 -6 -13 -17 -24 -25 -24 -7 0 -13 -4
-13 -9 0 -4 -11 -6 -25 -3 -14 2 -25 11 -25 18 0 8 -7 14 -15 14 -8 0 -15 5
-15 10 0 6 7 10 15 10 10 0 7 7 -9 25 -13 14 -28 25 -35 25 -17 0 -13 45 7 61
50 42 212 49 187 8 -4 -5 -1 -9 4 -9 15 0 14 23 -1 38 -7 7 -8 12 -2 12 5 0
17 -9 27 -20z m2577 -52 c0 -4 -8 -9 -17 -9 -16 -1 -16 -2 -2 -6 22 -6 14 -33
-17 -56 -26 -19 -44 -15 -44 9 0 8 -3 13 -7 11 -5 -2 -16 5 -26 15 -16 17 -16
19 -1 25 12 4 24 -2 39 -21 25 -32 41 -24 19 10 -17 26 -11 46 11 37 10 -3 15
1 15 13 1 18 1 18 15 0 8 -11 15 -23 15 -28z m-2270 2 c0 -5 -2 -10 -4 -10 -3
0 -8 5 -11 10 -3 6 -1 10 4 10 6 0 11 -4 11 -10z m2270 -100 c0 -5 -5 -12 -11
-16 -14 -8 -33 11 -25 25 7 11 36 4 36 -9z m30 -10 c0 -5 -4 -10 -10 -10 -5 0
-10 5 -10 10 0 6 5 10 10 10 6 0 10 -4 10 -10z m-3344 -167 c4 -16 2 -28 -7
-34 -36 -23 -79 4 -79 48 0 15 3 23 7 20 3 -4 13 3 21 15 l15 21 19 -23 c10
-12 21 -34 24 -47z m414 37 c0 -5 -5 -10 -11 -10 -5 0 -7 5 -4 10 3 6 8 10 11
10 2 0 4 -4 4 -10z m2408 -47 c28 -3 31 -7 26 -28 -5 -20 -1 -25 20 -31 14 -3
23 -10 20 -15 -3 -5 7 -20 22 -33 26 -21 29 -32 40 -141 7 -65 17 -122 23
-128 5 -5 54 -10 108 -12 56 -1 110 -8 123 -15 13 -7 54 -42 92 -77 116 -109
226 -142 290 -88 16 14 41 25 55 25 29 0 63 -25 63 -47 0 -14 17 -35 70 -88
19 -19 39 -50 45 -69 6 -22 26 -46 55 -68 24 -18 51 -46 60 -61 14 -25 14 -28
-8 -43 -16 -11 -22 -24 -20 -42 3 -26 5 -27 58 -23 30 2 68 10 83 18 25 13 30
12 54 -7 14 -11 34 -18 43 -15 9 3 42 8 74 11 l59 5 -6 -30 c-6 -29 -5 -31 23
-31 32 0 70 30 70 55 0 9 10 15 26 15 22 0 24 -3 18 -22 -4 -13 -7 -36 -6 -53
0 -18 -8 -40 -21 -54 l-22 -24 25 5 c14 3 32 7 40 9 20 5 14 -31 -8 -48 -16
-11 -16 -12 0 -13 9 0 20 5 23 10 4 6 21 -1 41 -17 31 -23 39 -25 65 -16 38
15 51 -3 20 -28 -12 -10 -21 -26 -20 -36 4 -32 -12 -71 -32 -76 -30 -8 -23
-43 14 -71 43 -33 48 -32 69 4 10 17 24 33 33 36 21 8 45 -14 45 -42 0 -28 20
-76 36 -86 6 -4 9 -19 7 -33 -6 -28 20 -46 40 -26 6 6 16 11 23 11 18 0 66
-68 58 -82 -5 -7 -9 -34 -11 -61 -3 -47 -20 -77 -44 -77 -8 0 -10 -14 -5 -49
5 -36 3 -50 -6 -53 -14 -5 -19 -58 -6 -58 4 0 8 -5 8 -12 0 -6 7 -19 16 -29
12 -13 13 -21 5 -36 -13 -21 -42 -144 -44 -187 -2 -21 3 -30 16 -32 27 -4 28
-5 12 -59 -8 -26 -15 -60 -15 -75 0 -58 -132 -213 -171 -203 -11 3 -19 12 -19
19 0 8 -3 14 -7 14 -15 -1 -46 -29 -57 -52 -9 -17 -20 -23 -46 -23 -45 0 -98
20 -128 48 -29 27 -45 18 -88 -46 -54 -78 -53 -190 1 -233 26 -20 26 -23 12
-50 -8 -16 -17 -45 -21 -64 -8 -41 -45 -92 -53 -72 -2 6 -15 12 -28 12 -12 0
-28 7 -35 15 -16 19 -40 19 -40 0 0 -8 9 -15 19 -15 11 0 23 -4 26 -10 3 -5
-3 -10 -13 -10 -21 0 -40 -32 -23 -38 6 -2 11 -10 11 -17 0 -8 8 -19 18 -24
14 -9 15 -12 3 -20 -12 -8 -12 -12 -2 -24 23 -28 21 -55 -6 -72 -13 -9 -31
-14 -39 -11 -7 3 -18 -3 -24 -14 -8 -16 -8 -20 4 -20 17 0 36 -29 36 -54 0 -9
-11 -23 -24 -31 -22 -15 -27 -15 -54 -1 -29 15 -52 58 -52 98 0 11 -4 16 -10
13 -5 -3 -10 -14 -10 -24 0 -28 -59 -81 -91 -81 -40 0 -59 10 -59 31 0 10 -4
20 -10 20 -5 1 -14 2 -20 3 -11 1 -14 11 -7 29 4 9 8 9 14 0 6 -8 13 -8 27 3
11 8 14 14 8 14 -7 0 -12 9 -12 19 0 11 -6 21 -12 24 -9 3 -3 15 16 36 l30 31
-29 30 c-21 22 -38 30 -63 30 -18 0 -42 5 -53 10 -20 11 -26 40 -8 40 7 0 9 9
6 21 -3 12 0 22 8 25 7 3 15 14 18 25 3 11 14 19 26 19 12 0 21 5 21 10 0 6
-4 10 -10 10 -14 0 -50 42 -50 59 0 8 11 42 24 75 13 34 29 99 36 146 7 47 20
108 30 135 30 84 34 132 15 161 -22 34 -77 83 -92 84 -25 0 -47 55 -60 149
-31 232 -34 273 -22 287 6 8 8 14 3 14 -5 0 -20 16 -33 35 -26 39 -93 65 -164
65 -45 0 -90 23 -107 55 -7 12 -44 38 -83 56 -66 31 -80 34 -172 35 -111 1
-192 21 -212 50 -15 23 -16 51 -14 272 1 179 0 183 -76 298 -36 55 -39 68 -28
144 5 37 0 60 -29 135 -20 49 -36 95 -36 102 0 21 61 167 77 185 11 12 12 21
4 37 -6 11 -11 31 -11 45 0 14 -5 28 -11 32 -7 4 -9 22 -5 48 6 40 5 43 -25
57 -39 17 -38 31 2 44 47 16 82 75 44 75 -8 0 -15 6 -15 14 0 14 28 17 88 9z
m3432 -24 c0 -11 -4 -17 -10 -14 -5 3 -10 13 -10 21 0 8 5 14 10 14 6 0 10 -9
10 -21z m-2 -79 c6 -24 9 -47 6 -49 -8 -9 -24 22 -24 47 0 19 -4 22 -20 17
-15 -5 -20 -2 -20 14 0 19 28 34 41 22 3 -3 11 -26 17 -51z m-3608 -50 c0 -5
3 -9 8 -9 4 1 18 1 32 0 22 -1 23 -3 8 -12 -10 -5 -18 -16 -18 -23 0 -8 -7
-17 -16 -20 -11 -4 -14 -1 -9 13 4 13 0 20 -15 24 -13 3 -18 10 -14 21 7 18
24 22 24 6z m50 -107 c-18 -35 -18 -53 0 -53 4 0 6 8 3 19 -6 22 14 38 30 22
18 -18 -9 -64 -33 -58 -11 3 -20 1 -20 -4 0 -5 12 -9 28 -10 15 0 21 -3 15 -6
-7 -2 -13 -11 -13 -18 0 -8 -9 -19 -19 -25 -25 -13 -27 -13 -46 6 -14 15 -14
18 0 40 8 13 13 24 9 24 -4 0 0 8 7 17 8 10 9 14 2 10 -23 -14 -21 10 4 46 34
48 60 40 33 -10z m-2230 -46 c0 -4 6 -5 13 -1 6 4 3 -2 -7 -14 -11 -12 -14
-22 -8 -22 6 0 14 -12 20 -27 6 -21 4 -36 -9 -59 -13 -24 -15 -35 -6 -44 9
-10 9 -11 0 -6 -17 9 -17 -26 -1 -42 9 -9 9 -12 -1 -12 -7 0 -9 -4 -6 -10 3
-5 1 -10 -5 -10 -6 0 -8 -5 -5 -10 4 -6 10 -8 15 -5 4 3 7 -7 5 -22 -1 -16 1
-30 5 -33 4 -3 11 -26 14 -51 5 -41 4 -47 -14 -52 -11 -3 -20 -1 -20 4 0 5 -6
9 -14 9 -10 0 -13 8 -11 21 3 15 -2 23 -15 26 -21 6 -28 35 -7 31 7 -2 13 9
15 25 2 19 -1 27 -12 27 -9 0 -16 7 -16 15 0 8 -6 15 -12 15 -10 0 -10 2 -1 8
14 9 48 85 58 131 l7 34 -33 -6 c-19 -3 -28 -3 -21 0 6 2 12 16 12 29 0 33 20
63 42 61 10 -1 18 -5 18 -10z m5732 -59 c-9 -9 -12 -7 -12 12 0 19 3 21 12 12
9 -9 9 -15 0 -24z m-3521 -81 c-1 -12 -15 -9 -19 4 -3 6 1 10 8 8 6 -3 11 -8
11 -12z m3341 -4 c0 -5 2 -19 3 -33 2 -14 6 -46 10 -71 6 -42 5 -47 -14 -52
-22 -5 -25 1 -15 27 3 9 10 13 15 10 5 -3 9 0 9 5 0 6 -5 11 -10 11 -6 0 -10
17 -9 38 1 20 -2 45 -6 55 -4 10 -3 17 4 17 6 0 12 -3 13 -7z m244 -70 c-11
-11 -17 4 -9 23 7 18 8 18 11 1 2 -10 1 -21 -2 -24z m-15 -56 c-8 -8 -11 -7
-11 4 0 9 3 19 7 23 4 4 9 2 11 -4 3 -7 -1 -17 -7 -23z m-1 -45 c0 -4 -11 -12
-25 -19 -22 -10 -25 -9 -25 7 0 10 8 20 18 23 19 4 32 0 32 -11z m-5723 -28
c-3 -3 -12 -4 -19 -1 -8 3 -5 6 6 6 11 1 17 -2 13 -5z m5654 -61 c-10 -17 -10
-16 -11 3 0 23 13 41 18 25 2 -6 -1 -18 -7 -28z m-188 2 c-5 -16 -33 -21 -33
-7 0 13 22 32 31 26 5 -2 6 -11 2 -19z m-34 -36 c-14 -8 -29 -3 -29 11 0 4 9
6 21 3 15 -4 17 -8 8 -14z m181 -7 c0 -5 -7 -17 -15 -28 -15 -19 -20 -8 -9 20
6 17 24 22 24 8z m-195 -22 c7 -11 -12 -50 -24 -50 -4 0 -8 14 -9 30 -1 29 19
42 33 20z m89 -42 c15 -21 16 -21 17 -3 1 20 1 20 6 0 3 -11 12 -28 21 -38 15
-16 14 -18 -5 -23 -14 -4 -24 -17 -29 -38 -8 -40 -41 -76 -71 -76 -27 0 -31
26 -5 35 28 9 71 79 61 98 -5 9 -16 14 -24 11 -11 -5 -15 1 -15 18 0 43 20 50
44 16z m68 -20 c-7 -7 -12 -8 -12 -2 0 14 12 26 19 19 2 -3 -1 -11 -7 -17z
m-5998 -3 c3 -8 1 -15 -4 -15 -6 0 -10 7 -10 15 0 8 2 15 4 15 2 0 6 -7 10
-15z m-16 -61 c-14 -14 -15 -14 -10 11 3 19 8 23 15 16 8 -8 7 -16 -5 -27z
m5872 21 c0 -8 -4 -15 -10 -15 -5 0 -10 7 -10 15 0 8 5 15 10 15 6 0 10 -7 10
-15z m-5850 -50 c10 -12 10 -15 -4 -15 -9 0 -16 7 -16 15 0 8 2 15 4 15 2 0 9
-7 16 -15z m5555 -157 c-8 -24 -19 -63 -25 -86 -6 -24 -13 -42 -15 -40 -6 6
11 108 24 141 17 45 31 31 16 -15z m113 -149 c-3 -8 -7 -3 -11 10 -4 17 -3 21
5 13 5 -5 8 -16 6 -23z m-4669 -45 c37 -31 40 -54 9 -54 -28 1 -93 54 -84 69
12 19 43 12 75 -15z m-25 -90 c20 -19 20 -38 1 -57 -21 -21 -53 -10 -71 24
-14 28 -14 30 8 39 33 13 45 12 62 -6z m-2054 -260 c0 -33 -30 -19 -55 25 -6
10 -2 11 15 6 17 -5 21 -4 16 6 -4 8 0 5 8 -5 9 -11 16 -25 16 -32z m-8 -80
c20 -10 28 -22 28 -40 0 -21 -4 -25 -20 -21 -11 3 -20 1 -20 -5 0 -5 -6 -6
-12 -1 -7 4 -23 6 -34 5 -16 -2 -24 5 -33 29 -6 18 -11 35 -11 38 0 13 75 9
102 -5z m-164 -32 c4 -13 -59 -27 -88 -19 -13 3 -20 0 -20 -10 0 -8 -5 -11
-11 -8 -6 4 -17 -1 -24 -11 -13 -17 -16 -17 -25 -4 -14 22 -13 24 20 43 18 11
45 17 69 15 22 -1 44 1 48 5 9 10 26 4 31 -11z m-285 -191 c-11 -9 -31 -42
-44 -74 -27 -67 -53 -97 -71 -79 -9 9 -8 16 4 29 8 10 23 38 32 63 10 25 32
60 49 78 27 28 32 30 40 16 7 -12 4 -21 -10 -33z m147 -53 c0 -13 -16 -9 -41
11 -21 17 -59 18 -59 1 0 -13 59 -33 85 -28 14 3 30 -1 36 -8 8 -10 8 -14 0
-14 -6 0 -11 -7 -11 -15 0 -8 -4 -15 -9 -15 -5 0 -14 7 -21 15 -7 8 -20 15
-29 15 -14 0 -14 -2 -1 -11 11 -8 7 -9 -15 -3 -16 4 -42 8 -57 8 -16 1 -28 2
-28 4 0 6 23 47 29 52 4 3 14 17 24 33 l18 27 39 -31 c22 -18 40 -36 40 -41z
m231 -186 c-5 -15 -6 -33 -4 -39 3 -7 1 -13 -4 -13 -14 0 -30 65 -18 77 18 19
34 4 26 -25z m4152 -64 c7 -25 3 -33 -12 -23 -13 8 -15 45 -2 45 5 0 11 -10
14 -22z m-4263 -44 c21 -20 36 -42 33 -49 -2 -7 5 -16 16 -20 12 -3 21 -10 21
-15 0 -11 -30 -21 -42 -14 -5 3 -22 -6 -38 -21 -16 -15 -33 -24 -39 -21 -16
10 -13 26 4 26 8 0 15 7 15 15 0 22 -27 18 -40 -5 -13 -25 -48 -26 -57 -2 -4
9 -14 22 -22 29 -9 7 -11 12 -4 13 6 0 33 23 59 50 26 28 50 50 52 50 2 0 21
-16 42 -36z m-115 -24 c-3 -5 -13 -10 -21 -10 -8 0 -12 5 -9 10 3 6 13 10 21
10 8 0 12 -4 9 -10z m375 -44 c0 -8 7 -17 16 -20 12 -5 14 -14 9 -38 -9 -43
-20 -54 -39 -39 -13 11 -16 9 -22 -13 -7 -28 -24 -36 -24 -11 0 8 -4 15 -10
15 -5 0 -10 -10 -10 -22 0 -13 -4 -30 -9 -37 -8 -12 -11 -10 -15 10 -7 29 -4
89 5 89 4 0 10 -7 13 -16 4 -9 9 -14 13 -11 3 4 -1 17 -9 29 -19 29 -13 48 17
48 12 0 28 7 35 15 16 19 30 19 30 1z m-217 -143 c3 -15 3 -30 0 -33 -7 -7
-37 38 -40 62 -5 31 34 4 40 -29z m4326 -126 c46 -28 71 -72 61 -106 -21 -75
-110 -173 -168 -186 -18 -3 -35 -13 -39 -20 -5 -8 -41 -26 -82 -40 -88 -32
-128 -28 -165 16 -48 56 -46 101 6 176 23 35 46 52 101 77 40 18 92 52 117 74
42 39 48 41 90 36 25 -4 60 -15 79 -27z m1756 -9 c4 4 4 -4 1 -18 -6 -23 -6
-23 7 -7 8 9 16 17 19 17 9 0 -4 -54 -18 -75 -8 -11 -14 -27 -14 -37 0 -23
-32 -91 -48 -101 -24 -16 -52 -51 -49 -62 2 -5 -5 -23 -15 -38 -11 -15 -17
-34 -14 -42 3 -8 2 -17 -3 -19 -4 -3 -8 -19 -9 -36 0 -17 3 -28 8 -25 9 6 23
-25 15 -33 -3 -3 -5 1 -6 9 0 8 -4 4 -10 -9 -5 -13 -14 -20 -20 -16 -8 4 -7 9
2 15 8 5 12 9 9 10 -3 0 -13 2 -22 4 -10 2 -16 -2 -15 -8 1 -6 -11 -13 -28
-17 -27 -5 -31 -2 -43 32 -11 32 -10 43 7 85 14 35 24 47 36 45 14 -3 16 1 10
15 -23 60 -5 120 36 115 4 -1 6 4 6 11 -1 42 5 59 22 64 13 3 18 10 14 20 -4
9 2 22 12 29 10 8 15 14 10 14 -4 0 9 15 31 34 25 22 43 31 50 25 6 -5 14 -5
19 -1z m-1366 -66 c5 -9 10 -37 12 -62 3 -40 1 -45 -16 -42 -11 2 -33 4 -50 3
-16 0 -39 6 -49 14 -19 14 -19 16 -3 50 24 51 87 73 106 37z m-4609 -1 c0 -11
-31 -24 -39 -16 -3 3 1 10 9 15 19 12 30 12 30 1z m-173 -13 c5 -7 6 -33 2
-58 -3 -25 -7 -38 -9 -30 -1 8 -2 21 -1 27 1 7 -5 23 -14 36 -20 31 0 54 22
25z m82 -19 c1 9 10 5 27 -12 24 -25 27 -25 50 -10 23 14 24 14 24 -6 0 -29
-36 -42 -69 -25 -18 10 -29 10 -38 2 -10 -8 -13 -2 -12 33 0 34 2 39 9 24 5
-11 9 -14 9 -6z m6036 -139 c3 -5 1 -10 -4 -10 -6 0 -11 5 -11 10 0 6 2 10 4
10 3 0 8 -4 11 -10z m-195 -40 c0 -5 -4 -10 -10 -10 -5 0 -10 5 -10 10 0 6 5
10 10 10 6 0 10 -4 10 -10z m-50 -44 c0 -8 -4 -18 -10 -21 -5 -3 -10 3 -10 14
0 12 5 21 10 21 6 0 10 -6 10 -14z m-23 -282 c9 -23 -11 -38 -26 -20 -13 16
-7 36 10 36 5 0 12 -7 16 -16z m-757 -131 c0 -14 -40 -73 -49 -73 -5 0 -11 14
-13 31 -4 24 0 33 16 39 27 11 46 12 46 3z m775 -68 c-33 -30 -66 -55 -75 -55
-10 1 -5 8 13 23 15 12 44 37 63 55 20 17 41 32 47 32 7 0 -15 -25 -48 -55z"/>
<path d="M7567 7869 c7 -7 15 -10 18 -7 3 3 -2 9 -12 12 -14 6 -15 5 -6 -5z"/>
<path d="M7170 7922 c0 -4 9 -13 20 -19 16 -11 18 -10 14 1 -6 15 -34 30 -34
18z"/>
<path d="M3716 7275 c-9 -26 -7 -32 5 -12 6 10 9 21 6 23 -2 3 -7 -2 -11 -11z"/>
<path d="M3700 7220 c0 -5 5 -10 11 -10 5 0 7 5 4 10 -3 6 -8 10 -11 10 -2 0
-4 -4 -4 -10z"/>
<path d="M3695 7040 c-3 -5 -1 -10 4 -10 6 0 11 5 11 10 0 6 -2 10 -4 10 -3 0
-8 -4 -11 -10z"/>
<path d="M3708 7023 c-10 -2 -18 -11 -18 -19 0 -8 8 -14 18 -13 11 0 12 2 4 6
-10 4 -9 8 5 19 19 14 18 14 -9 7z"/>
<path d="M3610 7271 c0 -7 -4 -9 -10 -6 -5 3 -10 2 -10 -4 0 -5 5 -13 10 -16
11 -7 26 22 16 32 -3 4 -6 1 -6 -6z"/>
<path d="M4030 7049 c0 -5 5 -7 10 -4 6 3 10 8 10 11 0 2 -4 4 -10 4 -5 0 -10
-5 -10 -11z"/>
<path d="M5025 6833 c3 -3 -1 -13 -8 -21 -8 -11 -8 -14 0 -9 6 4 14 1 17 -5 2
-7 4 -3 2 9 -1 12 -5 25 -9 28 -4 3 -5 2 -2 -2z"/>
<path d="M5010 6759 c0 -5 -5 -7 -11 -3 -7 4 -7 -1 1 -16 9 -17 14 -19 20 -10
5 7 6 19 3 27 -6 16 -13 17 -13 2z"/>
<path d="M5025 6710 c-10 -11 -15 -23 -12 -27 4 -3 7 -1 7 5 0 7 5 12 11 12 5
0 7 -4 4 -10 -3 -6 1 -7 9 -4 9 3 16 10 16 16 0 5 -5 6 -12 2 -8 -5 -9 -2 -5
9 8 22 4 21 -18 -3z"/>
<path d="M5007 6653 c-4 -3 -7 -13 -7 -21 0 -18 13 -7 16 13 2 17 1 18 -9 8z"/>
<path d="M5030 6639 c0 -5 5 -7 10 -4 6 3 10 8 10 11 0 2 -4 4 -10 4 -5 0 -10
-5 -10 -11z"/>
<path d="M4945 6570 c-3 -5 -2 -10 2 -10 5 0 10 -8 11 -17 1 -10 3 -31 5 -47
3 -28 27 -51 27 -26 0 6 5 8 10 5 13 -8 24 20 15 36 -5 8 -10 8 -14 0 -4 -6
-12 -2 -20 12 -13 20 -13 21 2 8 10 -8 17 -9 17 -3 0 6 9 9 20 7 12 -2 20 2
20 10 0 8 -7 11 -19 8 -10 -3 -22 1 -26 8 -5 8 -4 10 3 5 7 -4 12 -2 12 3 0 6
-9 11 -21 11 -13 0 -18 -4 -13 -12 6 -10 4 -10 -8 0 -11 9 -18 10 -23 2z"/>
<path d="M4953 6441 c-1 -10 5 -18 13 -18 18 0 19 23 1 30 -7 3 -13 -3 -14
-12z"/>
<path d="M3715 6590 c-3 -5 -1 -10 4 -10 6 0 11 5 11 10 0 6 -2 10 -4 10 -3 0
-8 -4 -11 -10z"/>
<path d="M3743 6493 c4 -3 2 -11 -3 -18 -7 -8 -5 -12 5 -12 8 0 12 4 9 9 -3 4
0 8 6 8 6 0 8 5 5 10 -3 6 -11 10 -17 10 -6 0 -8 -3 -5 -7z"/>
<path d="M2360 5661 c0 -6 5 -13 10 -16 6 -3 10 1 10 9 0 9 -4 16 -10 16 -5 0
-10 -4 -10 -9z"/>
<path d="M2487 5493 c-10 -16 11 -39 23 -27 8 8 7 14 -4 23 -8 7 -17 8 -19 4z"/>
<path d="M2530 5411 c0 -5 5 -13 10 -16 6 -3 10 -2 10 4 0 5 -4 13 -10 16 -5
3 -10 2 -10 -4z"/>
<path d="M2660 5300 c0 -6 -4 -8 -10 -5 -5 3 -10 2 -10 -3 0 -6 -9 -8 -20 -5
-20 5 -20 5 -3 -26 20 -34 43 -41 43 -13 0 11 10 23 22 29 l23 10 -23 12 c-15
8 -22 8 -22 1z"/>
<path d="M2635 5150 c3 -5 8 -10 11 -10 2 0 4 5 4 10 0 6 -5 10 -11 10 -5 0
-7 -4 -4 -10z"/>
<path d="M2865 4845 c-22 -10 -26 -15 -15 -19 22 -9 123 7 124 19 2 15 -75 16
-109 0z"/>
<path d="M3300 4480 c0 -5 5 -10 11 -10 5 0 7 5 4 10 -3 6 -8 10 -11 10 -2 0
-4 -4 -4 -10z"/>
<path d="M3486 4427 c-18 -13 -18 -15 -1 -40 9 -15 23 -27 31 -27 18 0 49 49
38 59 -18 17 -51 21 -68 8z"/>
<path d="M3130 4410 c-8 -15 -9 -25 -2 -32 14 -14 33 24 22 41 -6 11 -11 8
-20 -9z"/>
<path d="M2493 4363 c-7 -2 -13 -11 -13 -19 0 -16 42 -4 48 14 4 12 -13 15
-35 5z"/>
<path d="M1930 3700 c-9 -6 -10 -10 -3 -10 6 0 15 5 18 10 8 12 4 12 -15 0z"/>
<path d="M1970 3388 c0 -7 5 -20 10 -28 8 -12 10 -9 10 13 0 15 -4 27 -10 27
-5 0 -10 -6 -10 -12z"/>
<path d="M5350 3364 c0 -16 23 -44 35 -44 12 0 12 5 3 25 -10 21 -38 36 -38
19z"/>
<path d="M2010 3281 c0 -33 11 -44 34 -35 10 4 16 18 16 35 0 24 -4 29 -25 29
-21 0 -25 -5 -25 -29z"/>
<path d="M3560 6227 c0 -16 3 -17 15 -7 8 7 15 16 15 20 0 3 -7 7 -15 7 -8 0
-15 -9 -15 -20z"/>
<path d="M3604 6217 c0 -22 2 -24 23 -14 23 10 31 27 13 27 -5 0 -10 -5 -10
-12 0 -6 -6 -4 -13 6 -12 16 -13 16 -13 -7z"/>
<path d="M3654 6175 c-10 -7 -16 -17 -11 -21 4 -4 7 -3 7 3 0 6 9 9 20 6 11
-3 20 -1 20 5 0 19 -16 22 -36 7z"/>
<path d="M3639 6136 c-1 -3 -2 -9 -3 -13 -1 -5 -5 -13 -9 -20 -4 -7 -1 -10 10
-9 18 3 27 32 12 42 -5 3 -10 3 -10 0z"/>
<path d="M3588 6093 c7 -3 16 -2 19 1 4 3 -2 6 -13 5 -11 0 -14 -3 -6 -6z"/>
<path d="M3560 6058 c0 -4 4 -8 9 -8 6 0 12 4 15 8 3 5 -1 9 -9 9 -8 0 -15 -4
-15 -9z"/>
<path d="M3260 6100 c-9 -6 -10 -10 -3 -10 6 0 15 5 18 10 8 12 4 12 -15 0z"/>
<path d="M3230 6068 c0 -4 7 -8 15 -8 8 0 15 4 15 8 0 5 -7 9 -15 9 -8 0 -15
-4 -15 -9z"/>
<path d="M3355 6060 c3 -5 8 -10 11 -10 2 0 4 5 4 10 0 6 -5 10 -11 10 -5 0
-7 -4 -4 -10z"/>
<path d="M3255 5970 c3 -5 14 -10 23 -10 15 0 15 2 2 10 -20 13 -33 13 -25 0z"/>
</g>
</svg>
