<?xml version="1.0" standalone="no"?>
<!DOCTYPE svg PUBLIC "-//W3C//DTD SVG 20010904//EN"
 "http://www.w3.org/TR/2001/REC-SVG-20010904/DTD/svg10.dtd">
<svg version="1.0" xmlns="http://www.w3.org/2000/svg"
 width="700.000000pt" height="700.000000pt" viewBox="0 0 700.000000 700.000000"
 preserveAspectRatio="xMidYMid meet">
<metadata>
Created by potrace 1.14, written by Peter Selinger 2001-2017
</metadata>
<g transform="translate(0.000000,700.000000) scale(0.100000,-0.100000)"
fill="#000000" stroke="none">
<path d="M4527 4734 c-1 -1 -31 -5 -67 -9 -36 -4 -68 -9 -71 -11 -3 -2 -21 -6
-40 -9 -61 -11 -195 -61 -265 -100 -102 -57 -208 -169 -261 -275 -76 -155 -90
-332 -38 -481 28 -80 76 -153 140 -214 84 -81 97 -90 200 -140 122 -59 203
-84 522 -165 390 -99 497 -139 573 -213 84 -82 110 -145 107 -260 -2 -68 -7
-92 -31 -142 -86 -174 -291 -269 -581 -269 -158 0 -250 15 -365 61 -214 85
-329 225 -369 447 -6 33 -11 61 -11 62 0 2 -21 1 -47 -1 -110 -9 -229 -19
-247 -19 -17 0 -18 -7 -12 -74 12 -152 70 -304 161 -422 156 -202 387 -315
710 -347 78 -7 301 -7 355 1 354 51 609 226 711 491 35 90 40 111 46 215 8
128 -26 275 -85 369 -37 60 -109 134 -171 179 -150 108 -278 154 -716 257
-395 93 -511 148 -572 273 -37 75 -39 183 -5 253 82 169 255 250 540 251 325
2 517 -110 592 -346 11 -34 21 -76 22 -93 2 -33 6 -36 43 -35 44 0 212 13 247
18 36 5 36 6 32 47 -12 116 -56 246 -113 335 -131 202 -338 316 -651 359 -36
5 -279 11 -283 7z"/>
<path d="M2073 4692 l-53 -3 0 -922 c-1 -507 -3 -942 -5 -967 -17 -176 -69
-262 -195 -323 -60 -29 -73 -31 -170 -31 -92 0 -112 3 -160 25 -135 63 -203
203 -214 439 -1 31 2 30 -191 4 -22 -3 -49 -7 -60 -9 -11 -2 -27 -4 -36 -4
-12 -1 -15 -13 -13 -63 7 -177 37 -299 102 -415 31 -56 126 -153 173 -178 91
-47 116 -58 187 -76 81 -21 263 -29 352 -15 210 33 376 142 468 308 22 39 66
179 76 238 16 103 19 262 20 1088 l1 902 -90 1 c-49 0 -101 1 -115 2 -14 1
-49 1 -77 -1z"/>
</g>
</svg>
